<?xml version="1.0" standalone="no"?><!DOCTYPE svg PUBLIC "-//W3C//DTD SVG 1.1//EN" "http://www.w3.org/Graphics/SVG/1.1/DTD/svg11.dtd"><svg t="1534487749476" class="icon" style="" viewBox="0 0 1365 1024" version="1.1" xmlns="http://www.w3.org/2000/svg" p-id="30238" xmlns:xlink="http://www.w3.org/1999/xlink" width="66.650390625" height="50"><defs><style type="text/css"></style></defs><path d="M261.96093724 116.4921875h843.75000025c58.00781225 0 105.46874975 47.4609375 105.46874975 105.46874975v580.0781255c0 58.00781225-47.4609375 105.46874975-105.46874975 105.46874975H261.96093724c-58.00781225 0-105.46874975-47.4609375-105.46874975-105.46874975V221.96093725c0-58.00781225 47.4609375-105.46874975 105.46874975-105.46874975z" fill="#2F77F1" p-id="30239"></path><path d="M156.49218749 301.06249975h1054.68749975v52.73437525H156.49218749v-52.73437525z m158.203125 184.570313h342.77343725c14.50195287 0 26.36718725 11.86523438 26.36718801 26.36718725s-11.86523438 26.36718725-26.36718801 26.36718725H314.69531249c-14.50195287 0-26.36718725-11.86523438-26.36718724-26.36718725s11.86523438-26.36718725 26.36718724-26.36718725z m0 158.203125h435.05859375c14.50195287 0 26.36718725 11.86523438 26.36718725 26.36718725s-11.86523438 26.36718725-26.36718725 26.36718725H314.69531249c-14.50195287 0-26.36718725-11.86523438-26.36718724-26.36718725s11.86523438-26.36718725 26.36718724-26.36718725z" fill="#AFFCFE" p-id="30240"></path></svg>